<svg id="Capa_1" enable-background="new 0 0 512.008 512.008" height="512" viewBox="0 0 512.008 512.008" width="512" xmlns="http://www.w3.org/2000/svg"><g><path d="m410.785 202.457c55.814 0 101.223-45.409 101.223-101.223s-45.408-101.224-101.223-101.224-101.223 45.409-101.223 101.223 45.409 101.224 101.223 101.224zm-43.172-119.596 26.706 26.705 56.516-56.515 21.213 21.213-77.729 77.729-47.919-47.919z"/><path d="m118.286 374.29h323.432l15.014-150.142c-14.307 5.366-29.789 8.309-45.947 8.309-72.356 0-131.224-58.867-131.224-131.223 0-11.168 1.407-22.014 4.045-32.373h-179.288l-6.886-68.857h-97.432v30h70.282l31.706 317.059c-19.27 6.751-33.131 25.11-33.131 46.655 0 27.255 22.174 49.428 49.429 49.428h23.208c-2.561 5.967-3.984 12.534-3.984 19.429 0 27.255 22.173 49.429 49.428 49.429s49.429-22.174 49.429-49.429c0-6.894-1.423-13.461-3.984-19.429h81.665c-2.561 5.967-3.984 12.534-3.984 19.429 0 27.255 22.174 49.429 49.429 49.429s49.429-22.174 49.429-49.429c0-6.894-1.423-13.461-3.984-19.429h36.777v-30h-323.429c-10.713 0-19.429-8.715-19.429-19.428s8.716-19.428 19.429-19.428zm208.99-98.857h30v30h-30zm-69.061 0h30v30h-30zm-69.063 0h30v30h-30z"/></g></svg>