<svg id="Capa_1" enable-background="new 0 0 512 512" height="512" viewBox="0 0 512 512" width="512" xmlns="http://www.w3.org/2000/svg"><g><path d="m396.387 404.645h-280.774c-4.565 0-8.258-3.698-8.258-8.258v-280.774c0-4.56 3.694-8.258 8.258-8.258h280.774c4.565 0 8.258 3.698 8.258 8.258v280.774c0 4.561-3.693 8.258-8.258 8.258zm-272.516-16.516h264.258v-264.258h-264.258z" fill="#eceaec"/><path d="m512 396.387c0 27.721-9.756 53.163-26.023 73.081-21.201 25.959-53.46 38.973-89.59 38.973-63.851 0-111.613-48.203-111.613-112.054 0-36.139 12.582-68.406 38.552-89.606 19.914-16.257 45.349-26.007 73.061-26.007 63.851 0 115.613 51.762 115.613 115.613z" fill="#ccf49f"/><path d="m412.903 495.484c-63.851 0-115.613-51.762-115.613-115.613 0-27.718 9.773-53.173 26.037-73.089-25.962 21.201-42.553 53.472-42.553 89.605 0 63.851 51.762 115.613 115.613 115.613 36.133 0 68.39-16.57 89.59-42.532-19.916 16.263-45.356 26.016-73.074 26.016z" fill="#b3e59f"/><path d="m231.226 396.387c0 27.721-9.756 53.163-26.023 73.081-21.201 25.959-53.46 38.973-89.59 38.973-63.851 0-111.613-48.203-111.613-112.054 0-36.139 12.582-68.406 38.552-89.606 19.914-16.257 45.349-26.007 73.061-26.007 63.851 0 115.613 51.762 115.613 115.613z" fill="#ead1ff"/><path d="m132.129 495.484c-63.851 0-115.613-51.762-115.613-115.613 0-27.718 9.773-53.173 26.037-73.089-25.962 21.201-42.553 53.472-42.553 89.605 0 63.851 51.762 115.613 115.613 115.613 36.133 0 68.39-16.57 89.59-42.532-19.916 16.263-45.356 26.016-73.074 26.016z" fill="#d6bdef"/><path d="m512 115.613c0 27.721-9.756 53.163-26.023 73.081-21.201 25.959-53.46 38.973-89.59 38.973-63.851 0-111.613-48.203-111.613-112.054 0-36.139 12.582-68.406 38.552-89.606 19.914-16.257 45.349-26.007 73.061-26.007 63.851 0 115.613 51.762 115.613 115.613z" fill="#ff8086"/><path d="m412.903 214.71c-63.851 0-115.613-51.762-115.613-115.613 0-27.718 9.773-53.173 26.037-73.089-25.962 21.201-42.553 53.472-42.553 89.605 0 63.851 51.762 115.613 115.613 115.613 36.133 0 68.39-16.57 89.59-42.532-19.916 16.263-45.356 26.016-73.074 26.016z" fill="#e5646e"/><path d="m231.226 115.613c0 27.721-9.756 53.163-26.023 73.081-21.201 25.959-53.46 38.973-89.59 38.973-63.851 0-111.613-48.203-111.613-112.054 0-36.139 12.582-68.406 38.552-89.606 19.914-16.257 45.349-26.007 73.061-26.007 63.851 0 115.613 51.762 115.613 115.613z" fill="#a4ccff"/><path d="m132.129 214.71c-63.851 0-115.613-51.762-115.613-115.613 0-27.718 9.773-53.173 26.037-73.089-25.962 21.2-42.553 53.472-42.553 89.605 0 63.851 51.762 115.613 115.613 115.613 36.133 0 68.39-16.57 89.59-42.532-19.916 16.263-45.356 26.016-73.074 26.016z" fill="#8bb3ea"/><g fill="#fff"><path d="m140.387 49.548h-8.258c-18.218 0-33.032 14.819-33.032 33.032v16.516h-16.516c-4.565 0-8.258 3.698-8.258 8.258s3.694 8.258 8.258 8.258h16.516v57.806c0 4.56 3.694 8.258 8.258 8.258 4.565 0 8.258-3.698 8.258-8.258v-57.806h16.516c4.565 0 8.258-3.698 8.258-8.258s-3.694-8.258-8.258-8.258h-16.516v-16.515c0-9.109 7.411-16.516 16.516-16.516h8.258c4.565 0 8.258-3.698 8.258-8.258s-3.693-8.259-8.258-8.259z"/><path d="m440.727 124.041-63.735 31.868c-6.265 3.133-13.637-1.423-13.637-8.428v-63.736c0-7.005 7.372-11.561 13.637-8.428l63.735 31.868c6.945 3.472 6.945 13.383 0 16.856z"/><path d="m148.645 346.839h-66.064c-9.121 0-16.516 7.394-16.516 16.516v66.065c0 9.121 7.395 16.516 16.516 16.516h66.065c9.121 0 16.516-7.395 16.516-16.516v-66.065c-.001-9.122-7.395-16.516-16.517-16.516z"/><path d="m385.044 339.66c-22.504 4.276-40.72 22.269-45.251 44.724-3.354 16.625.457 32.313 8.869 44.604l-6.225 15.563c-1.453 3.633 2.152 7.239 5.786 5.786l15.563-6.225c12.292 8.413 27.98 12.224 44.605 8.869 22.455-4.531 40.448-22.748 44.723-45.253 7.741-40.746-27.325-75.81-68.07-68.068z"/></g><path d="m396.387 429.419c-8.823 0-17.121-3.44-23.355-9.677-6.242-6.238-9.677-14.532-9.677-23.355s3.435-17.117 9.677-23.355c3.226-3.226 8.452-3.226 11.677 0 3.226 3.226 3.226 8.456 0 11.677-3.121 3.121-4.839 7.266-4.839 11.677s1.718 8.556 4.839 11.677c6.242 6.242 17.113 6.242 23.355 0 3.226-3.226 8.452-3.222 11.677-.004 3.226 3.226 3.226 8.452 0 11.681-6.233 6.24-14.531 9.679-23.354 9.679z" fill="#b3e59f"/><circle cx="115.613" cy="396.387" fill="#d6bdef" r="20.645"/></g></svg>