<?xml version="1.0" standalone="no"?>
<!DOCTYPE svg PUBLIC "-//W3C//DTD SVG 20010904//EN"
 "http://www.w3.org/TR/2001/REC-SVG-20010904/DTD/svg10.dtd">
<svg version="1.0" xmlns="http://www.w3.org/2000/svg"
 width="500.000000pt" height="500.000000pt" viewBox="0 0 500.000000 500.000000"
 preserveAspectRatio="xMidYMid meet">
<metadata>
Created by potrace 1.16, written by Peter Selinger 2001-2019
</metadata>
<g transform="translate(0.000000,500.000000) scale(0.100000,-0.100000)"
fill="#000000" stroke="none">
<path d="M639 3638 c-142 -102 -265 -276 -330 -465 -59 -169 -73 -259 -74
-463 0 -167 2 -192 23 -260 52 -165 136 -292 262 -392 137 -111 275 -170 480
-209 160 -30 408 -24 551 14 188 49 333 126 456 242 32 30 61 55 65 55 3 0 16
-12 28 -27 29 -39 132 -125 210 -178 335 -224 787 -324 1225 -270 68 8 184 33
268 56 172 49 207 48 240 -9 25 -43 25 -177 -1 -284 -17 -68 -17 -80 -5 -98
21 -30 51 -25 124 23 308 198 498 491 580 894 26 126 36 378 20 465 -84 436
-407 738 -931 868 -63 16 -149 34 -190 40 -126 18 -447 24 -583 11 -280 -29
-560 -124 -764 -262 -82 -56 -228 -194 -258 -246 -11 -18 -23 -33 -27 -33 -4
0 -22 13 -40 28 -83 72 -202 141 -325 187 -238 91 -544 93 -771 5 -116 -45
-178 -18 -191 82 -6 49 0 150 14 226 7 40 -1 40 -56 0z m3026 -77 c247 -44
453 -122 619 -234 74 -50 220 -194 264 -261 122 -183 165 -366 143 -610 -27
-294 -114 -539 -266 -741 -76 -103 -284 -290 -301 -272 -3 3 0 42 7 87 22 151
-8 263 -80 299 -44 23 -131 28 -176 11 -35 -13 -164 -48 -240 -65 -301 -66
-673 -34 -976 84 -190 74 -355 176 -470 291 l-79 79 30 52 c17 28 43 86 57
128 22 65 25 93 25 196 0 104 -4 131 -27 203 -16 48 -50 116 -80 162 l-51 78
31 44 c166 225 468 394 828 463 181 34 176 33 412 30 160 -2 239 -8 330 -24z
m-2875 -660 c49 -18 50 -24 25 -86 l-15 -35 -39 16 c-23 9 -60 14 -92 12 -49
-3 -55 -6 -63 -31 -14 -39 -1 -55 81 -102 94 -53 120 -76 138 -119 62 -149
-66 -269 -252 -236 -99 17 -103 20 -103 91 0 54 2 60 18 54 67 -28 127 -45
157 -45 62 0 99 66 58 102 -10 9 -45 30 -78 48 -33 18 -73 45 -89 59 -89 81
-68 229 39 277 43 19 161 16 215 -5z m240 -48 c18 -38 44 -93 58 -123 l26 -55
59 123 59 122 64 0 c35 0 64 -3 64 -6 0 -3 -40 -83 -90 -178 l-90 -173 0 -122
0 -121 -65 0 -65 0 0 115 0 115 -90 180 c-49 99 -90 182 -90 185 0 3 29 5 64
5 l64 0 32 -67z m626 -151 c34 -118 64 -216 67 -218 2 -2 30 80 62 183 32 104
64 203 71 221 l13 33 78 -3 78 -3 3 -297 2 -298 -61 0 -61 0 3 220 c3 170 2
212 -7 187 -6 -17 -37 -116 -69 -219 l-58 -188 -57 0 -57 0 -62 218 c-35 119
-64 218 -65 219 0 1 1 -98 2 -218 l4 -220 -59 3 -58 3 -3 285 c-1 157 0 291 3
298 3 9 26 12 86 10 l82 -3 63 -213z"/>
<path d="M2810 2660 l0 -320 35 0 35 0 0 320 0 320 -35 0 -35 0 0 -320z"/>
<path d="M3281 2967 c-39 -20 -62 -59 -68 -120 -6 -56 -7 -57 -44 -69 -50 -14
-51 -36 -1 -40 l37 -3 3 -197 2 -198 30 0 30 0 2 198 3 197 58 3 c53 3 57 5
57 27 0 24 -3 25 -61 25 l-62 0 7 47 c9 66 31 86 95 84 45 -1 53 2 60 22 6 16
4 24 -8 29 -27 11 -115 8 -140 -5z"/>
<path d="M4430 2854 l0 -126 -30 26 c-101 84 -243 41 -284 -86 -28 -89 -18
-200 25 -263 57 -83 179 -99 253 -34 l34 30 7 -31 c5 -25 11 -30 36 -30 l29 0
0 320 0 320 -35 0 -35 0 0 -126z m-71 -127 c45 -22 64 -71 65 -161 1 -131 -31
-176 -127 -176 -81 0 -127 60 -127 167 0 80 15 127 51 157 34 29 96 35 138 13z"/>
<path d="M2475 2785 c-22 -8 -47 -23 -57 -35 -21 -26 -26 -25 -30 8 -2 21 -9
28 -30 30 l-28 3 0 -325 0 -326 36 0 36 0 -4 125 c-2 69 -2 125 -1 125 1 0 19
-11 39 -25 48 -32 98 -41 154 -26 96 26 134 97 128 243 -3 84 -6 99 -31 137
-47 71 -127 96 -212 66z m108 -56 c75 -41 99 -178 48 -277 -22 -43 -55 -62
-109 -62 -54 0 -99 31 -111 77 -16 55 -13 168 4 209 22 54 112 82 168 53z"/>
<path d="M3777 2785 c-22 -7 -50 -24 -64 -37 -87 -80 -88 -287 -2 -364 41 -37
112 -57 177 -51 86 8 112 21 112 55 l0 29 -52 -13 c-67 -18 -110 -18 -152 0
-40 16 -76 71 -76 115 l0 31 150 0 150 0 0 53 c0 56 -25 121 -56 149 -28 24
-88 48 -121 48 -15 -1 -45 -7 -66 -15z m139 -79 c24 -24 34 -43 34 -65 l0 -31
-115 0 c-113 0 -115 0 -115 23 0 28 32 77 62 93 13 8 40 13 62 14 30 0 45 -7
72 -34z"/>
<path d="M2990 2565 l0 -225 35 0 35 0 0 225 0 225 -35 0 -35 0 0 -225z"/>
<path d="M3470 2565 l0 -225 35 0 35 0 0 225 0 225 -35 0 -35 0 0 -225z"/>
</g>
</svg>
